<?xml version="1.0" standalone="no"?>
<!DOCTYPE svg PUBLIC "-//W3C//DTD SVG 20010904//EN"
 "http://www.w3.org/TR/2001/REC-SVG-20010904/DTD/svg10.dtd">
<svg version="1.0" xmlns="http://www.w3.org/2000/svg"
 width="400.000000pt" height="174.000000pt" viewBox="0 0 400.000000 174.000000"
 preserveAspectRatio="xMidYMid meet">

<g transform="translate(0.000000,174.000000) scale(0.100000,-0.100000)"
fill="#000000" stroke="none">
<path d="M1860 1471 c-163 -53 -269 -159 -339 -340 -80 -207 -59 -417 59 -605
75 -118 199 -202 339 -227 163 -29 341 46 416 175 56 96 91 256 55 256 -4 0
-13 -30 -20 -66 -21 -122 -85 -210 -185 -256 -63 -29 -192 -32 -241 -6 -40 22
-102 91 -121 137 -64 151 -78 382 -37 611 28 153 105 270 189 286 106 20 238
-28 296 -109 l31 -42 -67 -6 c-76 -7 -109 -26 -142 -85 -80 -140 79 -300 225
-225 59 30 83 62 91 123 23 168 -96 326 -288 382 -72 21 -191 20 -261 -3z"/>
<path d="M1340 1360 c0 -25 4 -30 25 -30 21 0 25 5 25 30 0 25 -4 30 -25 30
-21 0 -25 -5 -25 -30z"/>
<path d="M342 1193 c3 -186 3 -188 26 -191 22 -3 22 -3 22 135 1 158 -2 157
77 16 28 -50 53 -83 62 -83 10 0 38 40 71 98 l55 97 5 -130 5 -130 25 0 25 0
3 188 2 187 -28 0 c-26 0 -34 -10 -93 -115 -35 -63 -66 -115 -69 -115 -3 0
-34 52 -70 115 -58 103 -68 115 -93 115 l-27 0 2 -187z"/>
<path d="M780 1190 c0 -143 24 -190 97 -190 16 0 44 8 62 18 34 18 35 18 53 0
37 -37 43 -20 40 123 -2 74 -7 138 -12 142 -4 5 -16 7 -26 5 -17 -3 -19 -15
-22 -98 -3 -109 -20 -140 -78 -140 -49 0 -58 20 -62 136 -4 102 -5 104 -28
104 -24 0 -24 -1 -24 -100z"/>
<path d="M1111 1264 c-23 -19 -31 -34 -31 -60 0 -40 19 -55 103 -79 67 -19 81
-39 48 -67 -30 -23 -57 -23 -106 2 -30 15 -41 17 -47 7 -12 -19 -5 -31 33 -49
66 -34 159 -14 179 38 22 57 4 80 -86 109 -71 23 -88 42 -64 70 16 19 67 19
100 0 18 -9 29 -10 37 -3 20 16 16 24 -21 42 -52 25 -109 21 -145 -10z"/>
<path d="M1340 1145 l0 -145 25 0 25 0 0 145 0 145 -25 0 -25 0 0 -145z"/>
<path d="M2790 641 c0 -195 1 -200 22 -215 42 -29 98 -18 98 20 0 21 -3 24
-26 18 -17 -4 -29 -2 -35 7 -5 8 -9 94 -9 192 l0 177 -25 0 -25 0 0 -199z"/>
<path d="M2940 645 c0 -185 1 -196 21 -216 17 -17 29 -20 61 -16 48 6 49 7 42
34 -4 16 -13 21 -32 20 l-27 -2 -3 188 -2 187 -30 0 -30 0 0 -195z"/>
<path d="M3392 628 l3 -213 28 -3 c22 -3 27 1 27 19 0 21 1 22 20 4 31 -28
108 -31 148 -6 92 58 99 209 12 271 -44 31 -109 32 -150 1 l-30 -22 0 81 0 80
-30 0 -30 0 2 -212z m211 24 c28 -25 42 -86 27 -122 -16 -38 -55 -70 -87 -70
-31 0 -79 25 -87 45 -11 29 -6 109 8 127 34 46 99 55 139 20z"/>
<path d="M2535 715 c-48 -17 -80 -52 -96 -104 -17 -57 -4 -106 41 -155 38 -40
40 -41 104 -41 61 0 67 2 101 35 123 119 9 322 -150 265z m118 -76 c31 -34 36
-83 12 -129 -35 -68 -125 -68 -160 0 -21 41 -19 92 6 124 42 54 95 56 142 5z"/>
<path d="M3165 721 c-44 -11 -75 -30 -75 -46 0 -23 18 -27 49 -10 65 33 131
10 131 -46 0 -23 -2 -24 -56 -21 -30 2 -69 -2 -85 -8 -99 -42 -66 -180 43
-180 24 0 56 7 71 15 25 13 31 13 53 -1 13 -9 31 -14 39 -10 17 6 20 42 5 51
-5 3 -10 42 -10 87 0 120 -23 156 -110 172 -14 2 -38 1 -55 -3z m100 -201 c0
-31 -5 -37 -38 -53 -47 -24 -88 -13 -102 27 -15 42 21 68 89 64 l51 -3 0 -35z"/>
</g>
</svg>
