<?xml version="1.0" encoding="UTF-8"?>
<svg xmlns="http://www.w3.org/2000/svg" xmlns:xlink="http://www.w3.org/1999/xlink" width="59pt" height="100pt" viewBox="0 0 59 100" version="1.1">
<g id="surface1">
<path style="fill-rule:nonzero;fill:rgb(0%,0%,0%);fill-opacity:1;stroke-width:0.1;stroke-linecap:butt;stroke-linejoin:miter;stroke:rgb(0%,0%,0%);stroke-opacity:1;stroke-miterlimit:4;" d="M 39.708825 63.678023 C 39.316669 65.771739 41.499478 70.115763 45.891047 70.257857 C 51.199568 70.42895 54.590563 66.369114 53.010406 59.739983 L 45.086551 23.172465 C 44.143646 18.816841 44.850104 16.456337 45.354716 15.049894 C 46.698426 11.294546 50.054819 9.746009 50.873733 10.94946 C 51.34086 11.636732 52.468308 14.844002 49.25609 20.591569 C 46.750329 25.071888 35.09811 30.949949 34.241711 41.467823 C 33.500652 50.614053 43.076752 57.367879 51.337976 54.714487 C 56.825275 52.951358 59.653987 44.622895 56.257226 40.328169 C 47.295311 28.995429 32.923952 46.342526 46.845485 51.092533 C 45.331648 49.903581 44.299355 48.981419 44.109044 47.853365 C 42.237654 36.877309 58.739918 39.774292 54.293563 50.18777 C 52.465424 54.467997 45.080784 55.297363 40.873758 51.478218 C 37.350123 48.276747 35.787266 42.114497 39.708825 37.689276 C 45.02023 31.695219 51.288957 26.313037 52.952736 18.10927 C 54.922166 8.406263 48.494846 0.840469 44.429113 10.386883 C 43.065218 13.588353 42.557722 16.804323 43.863947 22.963673 L 51.779152 60.31126 C 52.347201 62.984951 51.966579 66.664902 49.472352 68.355534 C 48.235331 69.1936 43.861063 69.770677 42.791285 67.769758 " transform="matrix(1.354691,0,0,1.347037,-32.699436,-1.315737)"/>
<path style="fill-rule:nonzero;fill:rgb(0%,0%,0%);fill-opacity:1;stroke-width:0.0921395;stroke-linecap:butt;stroke-linejoin:miter;stroke:rgb(0%,0%,0%);stroke-opacity:1;stroke-miterlimit:4;" d="M 48.248919 64.583025 C 48.247985 66.515193 46.709608 68.083376 44.8096 68.081627 C 42.909641 68.082549 41.370884 66.516006 41.369162 64.583888 C 41.370096 62.65172 42.908523 61.086208 44.808481 61.085286 C 46.70844 61.084364 48.249853 62.650857 48.248919 64.583025 Z M 48.248919 64.583025 " transform="matrix(-1.470002,-0.0274371,0.027593,-1.461697,90.155699,180.611353)"/>
</g>
</svg>
